<svg width="32" height="32" viewBox="0 0 32 32" fill="none" xmlns="http://www.w3.org/2000/svg">
<path fill-rule="evenodd" clip-rule="evenodd" d="M3.72642 2.29293L16.0099 14.5764L28.2736 2.31274C28.664 1.92233 29.297 1.92233 29.6874 2.31274C30.0778 2.70315 30.0778 3.33613 29.6874 3.72654L17.4235 15.99L29.7072 28.2737C30.0976 28.6641 30.0976 29.2971 29.7072 29.6875C29.3168 30.0779 28.6838 30.0779 28.2934 29.6875L16.0099 17.4036L3.70661 29.7073C3.3162 30.0977 2.68322 30.0977 2.29281 29.7073C1.9024 29.3169 1.9024 28.6839 2.29281 28.2935L14.5953 15.99L2.31262 3.70673C1.92221 3.31632 1.92221 2.68334 2.31262 2.29293C2.70303 1.90252 3.33601 1.90252 3.72642 2.29293Z" fill="black"/>
</svg>
