<svg width="16" height="14" viewBox="0 0 16 14" fill="none" xmlns="http://www.w3.org/2000/svg">
<path d="M7.99974 0C8.68378 0 9.31792 0.357072 9.67378 0.943834L15.7383 11.0695C16.0853 11.6704 16.0873 12.4101 15.7438 13.013C15.3998 13.6164 14.7611 13.9923 14.06 14H1.93367C1.23839 13.9923 0.599651 13.6164 0.255722 13.013C-0.0878659 12.4101 -0.085795 11.6704 0.26541 11.0623L6.3257 0.943834C6.68156 0.357072 7.3157 0 7.99974 0ZM7.99974 1.04586C7.68381 1.04586 7.39053 1.21076 7.22594 1.48127L1.17073 11.5911C1.00917 11.8709 1.00821 12.2157 1.1682 12.4964C1.32785 12.7765 1.62366 12.9506 1.93945 12.9542H14.0542C14.3758 12.9506 14.6716 12.7765 14.8313 12.4964C14.9913 12.2157 14.9903 11.8709 14.833 11.5983L8.77421 1.48237C8.60974 1.21121 8.3161 1.04586 7.99974 1.04586ZM8 10.5C8.41421 10.5 8.75 10.8358 8.75 11.25C8.75 11.6642 8.41421 12 8 12C7.58579 12 7.25 11.6642 7.25 11.25C7.25 10.8358 7.58579 10.5 8 10.5ZM8 3.5C8.27614 3.5 8.5 3.7734 8.5 4.09724V8.90276C8.5 9.23261 8.27807 9.5 8 9.5C7.72386 9.5 7.5 9.2266 7.5 8.90276V4.09724C7.5 3.76739 7.72193 3.5 8 3.5Z" fill="black"/>
</svg>
