<svg width="55" height="8" viewBox="0 0 55 8" fill="none" xmlns="http://www.w3.org/2000/svg">
<g clip-path="url(#clip0)">
<path fill-rule="evenodd" clip-rule="evenodd" d="M4.25461 1.09858C4.25461 1.09858 4.23301 1.16036 3.92935 1.98368C3.06198 1.29301 1.60829 1.34354 1.60829 2.4059C1.60829 3.65202 4.64428 3.49549 4.54992 5.72028C4.47431 7.50647 2.27552 7.91646 0.579102 7.05583C0.727467 6.74119 0.881539 6.4378 0.986699 6.18929C2.26921 6.94766 3.3738 6.59986 3.55518 5.98992C4.05122 4.32078 0.592756 4.83637 0.592756 2.46946C0.592756 1.47401 1.74524 -0.0735311 4.25461 1.09858Z" fill="black"/>
<path fill-rule="evenodd" clip-rule="evenodd" d="M7.53181 0.961992H11.5048C11.5048 0.961992 11.4933 1.31981 11.501 1.82917H8.52678V3.60679H10.6364C10.6287 3.96105 10.6325 4.23944 10.6325 4.4222H8.52678V6.63824H11.501C11.4989 6.80974 11.4977 7.32839 11.501 7.48902H7.53563L7.53181 0.961992Z" fill="black"/>
<path fill-rule="evenodd" clip-rule="evenodd" d="M16.9947 4.16074C16.7549 4.16074 16.5777 4.15778 16.3343 4.15679C16.3347 2.93902 16.3366 1.80043 16.3366 1.80043C16.3366 1.80043 16.6265 1.79925 16.9006 1.79925C17.1625 1.79925 18.6888 1.68037 18.738 2.89814C18.7865 4.09893 17.5852 4.16074 16.9947 4.16074ZM17.0538 0.97463C16.7014 0.966139 15.9647 0.961992 15.3358 0.961992L15.3382 7.48902H16.3378C16.3378 7.48902 16.3347 6.24301 16.3343 5.01458C16.5823 5.01043 17.0968 4.99661 17.5123 4.98476C18.0886 4.96778 19.6029 4.67968 19.5925 2.88965C19.5804 0.877872 17.4041 0.982529 17.0538 0.97463Z" fill="black"/>
<path fill-rule="evenodd" clip-rule="evenodd" d="M42.6829 3.98345C42.4496 3.98345 42.2811 3.97891 42.0447 3.97732C42.0454 2.83088 42.0482 1.77463 42.0482 1.77463C42.0482 1.77463 42.3213 1.77087 42.5863 1.77087C42.8391 1.77087 44.1913 1.69453 44.3057 2.75791C44.4416 4.01411 42.9591 3.98345 42.6829 3.98345ZM44.8836 7.48863H46.1264L44.0633 4.56033C44.6186 4.35624 45.2622 3.8824 45.181 2.79964C45.0357 0.859967 43.1401 1.00374 42.7344 0.984954C42.3924 0.968738 41.6567 0.959443 41.0183 0.962607V7.48902H42.0482C42.0482 7.48902 42.0451 6.02853 42.0443 4.73773C42.3855 4.73891 42.5076 4.73278 43.0221 4.71914L44.8836 7.48863Z" fill="black"/>
<path fill-rule="evenodd" clip-rule="evenodd" d="M26.9531 3.4209V0.961992H27.9642V7.20524H26.9531V4.23725L23.583 4.2416V7.20524H22.5723V0.961992H23.583V3.4209H26.9531Z" fill="black"/>
<path fill-rule="evenodd" clip-rule="evenodd" d="M34.8371 0.678198C32.7368 0.678198 31.3696 2.203 31.3696 4.08341C31.3696 5.9646 32.7368 7.48901 34.8371 7.48901C36.9375 7.48901 38.3046 5.9646 38.3046 4.08341C38.3046 2.203 36.9375 0.678198 34.8371 0.678198ZM34.8371 1.60503C33.2974 1.60503 32.4229 2.71465 32.4229 4.08341C32.4229 5.45237 33.2888 6.56238 34.8371 6.56238C36.3854 6.56238 37.2513 5.45237 37.2513 4.08341C37.2513 2.71465 36.3768 1.60503 34.8371 1.60503ZM50.6058 5.08464L52.7546 5.07136L51.6631 1.88995H51.6487L50.6058 5.08464ZM51.0777 0.865478H52.2734L54.6399 7.33473L53.5819 7.3322C53.5819 7.3322 53.348 6.67935 53.036 5.81482L50.3666 5.83122C50.3666 5.83122 50.2594 6.16419 49.9414 7.33259H48.9209L51.0777 0.865478Z" fill="black"/>
</g>
<defs>
<clipPath id="clip0">
<rect width="54" height="7.78379" fill="white" transform="translate(0.579102 0.191711)"/>
</clipPath>
</defs>
</svg>
